HIERARCHY
ROOT joint_Root
{
  OFFSET 0 0 0
  CHANNELS 6 Xposition Yposition Zposition Zrotation Xrotation Yrotation
  JOINT Hips
  {
    OFFSET 0 93.9241 -3
    CHANNELS 6 Xposition Yposition Zposition Zrotation Xrotation Yrotation
    JOINT Spine
    {
      OFFSET 15.7357 0 0
      CHANNELS 6 Xposition Yposition Zposition Zrotation Xrotation Yrotation
      JOINT Chest
      {
        OFFSET 8.98455 -0.406207 0
        CHANNELS 6 Xposition Yposition Zposition Zrotation Xrotation Yrotation
        JOINT Neck
        {
          OFFSET 16.3773 0 0
          CHANNELS 6 Xposition Yposition Zposition Zrotation Xrotation Yrotation
          JOINT Head
          {
            OFFSET 6.45672 0 0
            CHANNELS 6 Xposition Yposition Zposition Zrotation Xrotation Yrotation
            End Site
            {
              OFFSET 0 0 0
            }
          }
        }
        JOINT Shoulder_L
        {
          OFFSET 12.9942 -0.242716 4.98039
          CHANNELS 6 Xposition Yposition Zposition Zrotation Xrotation Yrotation
          JOINT UpperArm_L
          {
            OFFSET 5.34809 0 0
            CHANNELS 6 Xposition Yposition Zposition Zrotation Xrotation Yrotation
            JOINT LowerArm_L
            {
              OFFSET 24.3286 1.87007e-05 0
              CHANNELS 6 Xposition Yposition Zposition Zrotation Xrotation Yrotation
              JOINT Hand_L
              {
                OFFSET 22.2916 0 0
                CHANNELS 6 Xposition Yposition Zposition Zrotation Xrotation Yrotation
                End Site
                {
                  OFFSET 0 0 0
                }
              }
            }
          }
        }
        JOINT Shoulder_R
        {
          OFFSET 12.9945 -0.242716 -4.98039
          CHANNELS 6 Xposition Yposition Zposition Zrotation Xrotation Yrotation
          JOINT UpperArm_R
          {
            OFFSET -5.34813 0 0
            CHANNELS 6 Xposition Yposition Zposition Zrotation Xrotation Yrotation
            JOINT LowerArm_R
            {
              OFFSET -24.3289 0.000322201 0
              CHANNELS 6 Xposition Yposition Zposition Zrotation Xrotation Yrotation
              JOINT Hand_R
              {
                OFFSET -22.2915 -0.000108084 0
                CHANNELS 6 Xposition Yposition Zposition Zrotation Xrotation Yrotation
                End Site
                {
                  OFFSET 0 0 0
                }
              }
            }
          }
        }
      }
    }
    JOINT UpperLeg_L
    {
      OFFSET -2.19248 -6.46944 0
      CHANNELS 6 Xposition Yposition Zposition Zrotation Xrotation Yrotation
      JOINT LowerLeg_L
      {
        OFFSET 39.0811 0 -1.23785e-05
        CHANNELS 6 Xposition Yposition Zposition Zrotation Xrotation Yrotation
        JOINT Foot_L
        {
          OFFSET 40.9854 0 -1.26872e-05
          CHANNELS 6 Xposition Yposition Zposition Zrotation Xrotation Yrotation
          JOINT Toes_L
          {
            OFFSET 11.7543 0 0
            CHANNELS 6 Xposition Yposition Zposition Zrotation Xrotation Yrotation
            End Site
            {
              OFFSET 0 0 0
            }
          }
        }
      }
    }
    JOINT UpperLeg_R
    {
      OFFSET -2.19251 6.46944 0
      CHANNELS 6 Xposition Yposition Zposition Zrotation Xrotation Yrotation
      JOINT LowerLeg_R
      {
        OFFSET -39.0811 -0.00228153 -0.0401928
        CHANNELS 6 Xposition Yposition Zposition Zrotation Xrotation Yrotation
        JOINT Foot_R
        {
          OFFSET -40.9854 0 0
          CHANNELS 6 Xposition Yposition Zposition Zrotation Xrotation Yrotation
          JOINT Toes_R
          {
            OFFSET -11.7543 0 0
            CHANNELS 6 Xposition Yposition Zposition Zrotation Xrotation Yrotation
            End Site
            {
              OFFSET 0 0 0
            }
          }
        }
      }
    }
  }
}
MOTION
Frames:	8
Frame Time:	0.0333333
0 0 0 0 0 -0 -6.64583 91.2439 383.972 86.2649 -3.98086 6.52218 15.7357 5.1072e-06 -5.51765e-07 98.3973 82.8161 -95.3407 8.98455 -0.406207 -4.3199e-07 6.40321 2.05581 5.99171 16.3773 -1.3905e-06 -6.99897e-07 4.80341 2.76629 -3.48786 6.45672 -1.25837e-06 -1.02172e-07 14.5626 0.0042387 -9.12004 12.9942 -0.242716 4.98039 -90.3741 2.27107 -95.644 5.34809 -7.22636e-06 -6.2814e-07 -77.0129 8.00917 -0.584619 24.3286 1.87007e-05 4.90208e-06 3.50597 9.89023 -19.6309 22.2916 -9.88446e-07 4.63217e-06 7.70123 5.15013 3.94001 12.9945 -0.242716 -4.98039 89.6371 3.19852 -98.5232 -5.34813 -1.25947e-06 -3.79883e-06 -69.7113 5.50357 1.53415 -24.3289 0.000322201 -8.65921e-06 1.94851 16.1402 -6.98046 -22.2915 -0.000108084 -4.47941e-06 13.8354 5.27378 0.795241 -2.19248 -6.46944 -1.22533e-07 -172.985 -4.15671 -8.53355 39.0811 -6.73843e-06 -1.23785e-05 -0.0239828 0.0353753 40.8776 40.9854 -6.48686e-06 -1.26872e-05 1.37793 -8.38063 -63.7555 11.7543 -2.30145e-07 3.05095e-06 -0.393944 -1.02716 -20.5315 -2.19251 6.46944 -1.45247e-06 -169.842 7.93419 169.713 -39.0811 -0.00228153 -0.0401928 0.162095 -0.36956 20.845 -40.9854 7.72618e-06 5.99936e-06 8.10651 0.720592 -55.1192 -11.7543 -5.6619e-06 -5.58687e-06 0.228713 -0.244446 -18.4374 
0 0 0 0 0 -0 -6.36605 91.0839 382.883 85.677 -3.58725 6.55349 15.7357 5.1072e-06 -5.51765e-07 96.0726 82.8612 -92.8539 8.98455 -0.406207 -4.3199e-07 6.39998 1.46776 6.34834 16.3773 -1.3905e-06 -6.99897e-07 5.15359 2.28983 -3.13493 6.45672 -1.25837e-06 -1.02172e-07 14.7157 -0.0909658 -8.78454 12.9942 -0.242716 4.98039 -90.3609 2.27744 -95.9938 5.34809 -7.22636e-06 -6.2814e-07 -76.2422 9.96671 -2.67571 24.3286 1.87007e-05 4.90208e-06 3.67305 10.1449 -20.0245 22.2916 -9.88446e-07 4.63217e-06 7.71373 5.14385 4.08983 12.9945 -0.242716 -4.98039 89.5734 3.49261 -98.0312 -5.34813 -1.25947e-06 -3.79883e-06 -69.2754 4.6346 3.17631 -24.3289 0.000322201 -8.65921e-06 1.9379 15.7236 -7.12072 -22.2915 -0.000108084 -4.47941e-06 13.5397 5.27853 0.665968 -2.19248 -6.46944 -1.22533e-07 -172.64 -4.49748 -7.06956 39.0811 -6.73843e-06 -1.23785e-05 -0.00362626 0.0129075 42.8349 40.9854 -6.48686e-06 -1.26872e-05 0.168859 -5.32557 -64.5535 11.7543 -2.30145e-07 3.05095e-06 0.174336 -0.420397 -19.7718 -2.19251 6.46944 -1.45247e-06 -169.298 8.067 168.987 -39.0811 -0.00228153 -0.0401928 0.154411 -0.353588 20.6708 -40.9854 7.72618e-06 5.99936e-06 8.04041 0.377093 -54.1924 -11.7543 -5.6619e-06 -5.58687e-06 0.241822 -0.258983 -18.5464 
0 0 0 0 0 -0 -6.03064 90.9078 381.621 85.0191 -3.18676 6.3573 15.7357 5.1072e-06 -5.51765e-07 94.175 82.9727 -90.7911 8.98455 -0.406207 -4.3199e-07 6.2322 0.975308 6.70717 16.3773 -1.3905e-06 -6.99897e-07 5.40778 1.77796 -2.61351 6.45672 -1.25837e-06 -1.02172e-07 14.8465 -0.317653 -8.42754 12.9942 -0.242716 4.98039 -90.3375 2.22333 -96.3659 5.34809 -7.22636e-06 -6.2814e-07 -75.3779 12.289 -5.02247 24.3286 1.87007e-05 4.90208e-06 3.67322 10.0771 -20.1479 22.2916 -9.88446e-07 4.63217e-06 7.67954 5.13448 4.31185 12.9945 -0.242716 -4.98039 89.5005 3.7613 -97.4297 -5.34813 -1.25947e-06 -3.79883e-06 -68.87 4.42488 4.8471 -24.3289 0.000322201 -8.65921e-06 2.19726 15.2753 -8.29014 -22.2915 -0.000108084 -4.47941e-06 13.0529 5.28846 0.39293 -2.19248 -6.46944 -1.22533e-07 -172.16 -5.00677 -5.76899 39.0811 -6.73843e-06 -1.23785e-05 0.0257704 -0.01712 43.9512 40.9854 -6.48686e-06 -1.26872e-05 -1.45461 -2.09268 -64.3591 11.7543 -2.30145e-07 3.05095e-06 0.0261186 -0.548957 -19.8718 -2.19251 6.46944 -1.45247e-06 -168.682 8.31505 168.006 -39.0811 -0.00228153 -0.0401928 0.136109 -0.313025 20.2922 -40.9854 7.72618e-06 5.99936e-06 7.97806 0.132516 -53.0527 -11.7543 -5.6619e-06 -5.58687e-06 0.272683 -0.293333 -18.8034 
0 0 0 0 0 -0 -5.61766 90.6909 380.119 84.2785 -2.68212 5.94756 15.7357 5.1072e-06 -5.51765e-07 92.2069 83.1419 -88.6199 8.98455 -0.406207 -4.3199e-07 5.93561 0.469845 7.14151 16.3773 -1.3905e-06 -6.99897e-07 5.50275 1.26403 -2.08325 6.45672 -1.25837e-06 -1.02172e-07 14.9749 -0.556013 -8.00856 12.9942 -0.242716 4.98039 -90.3079 2.12431 -96.7506 5.34809 -7.22636e-06 -6.2814e-07 -74.6728 14.0671 -7.46084 24.3286 1.87007e-05 4.90208e-06 3.74932 10.2376 -20.2393 22.2916 -9.88446e-07 4.63217e-06 7.54613 5.12796 4.46578 12.9945 -0.242716 -4.98039 89.4292 4.00703 -96.8853 -5.34813 -1.25947e-06 -3.79883e-06 -68.3815 4.46038 6.39041 -24.3289 0.000322201 -8.65921e-06 2.65702 15.1173 -10.0939 -22.2915 -0.000108084 -4.47941e-06 12.4891 5.30309 -0.0155637 -2.19248 -6.46944 -1.22533e-07 -171.599 -5.65203 -4.72583 39.0811 -6.73843e-06 -1.23785e-05 0.0506917 -0.0422249 44.0924 40.9854 -6.48686e-06 -1.26872e-05 -2.62245 -0.209242 -63.7439 11.7543 -2.30145e-07 3.05095e-06 0.777971 0.0927768 -24.3718 -2.19251 6.46944 -1.45247e-06 -168.03 8.32332 166.69 -39.0811 -0.00228153 -0.0401928 0.109784 -0.251205 19.7716 -40.9854 7.72618e-06 5.99936e-06 7.8256 -0.249911 -51.6256 -11.7543 -5.6619e-06 -5.58687e-06 0.288941 -0.311558 -18.9393 
0 0 0 0 0 -0 -5.15045 90.4456 378.341 83.5239 -2.24641 5.28195 15.7357 5.1072e-06 -5.51765e-07 90.4873 83.3304 -86.6966 8.98455 -0.406207 -4.3199e-07 5.58267 0.0413565 7.57089 16.3773 -1.3905e-06 -6.99897e-07 5.39699 0.761653 -1.65812 6.45672 -1.25837e-06 -1.02172e-07 14.886 -0.683002 -7.49335 12.9942 -0.242716 4.98039 -90.2678 1.95572 -97.2017 5.34809 -7.22636e-06 -6.2814e-07 -74.2685 14.7845 -9.71042 24.3286 1.87007e-05 4.90208e-06 3.89031 10.3161 -20.7938 22.2916 -9.88446e-07 4.63217e-06 7.46478 5.12244 4.5944 12.9945 -0.242716 -4.98039 89.3574 4.23322 -96.3606 -5.34813 -1.25947e-06 -3.79883e-06 -67.8609 4.51108 7.47092 -24.3289 0.000322201 -8.65921e-06 3.15465 14.8712 -12.124 -22.2915 -0.000108084 -4.47941e-06 12.1218 5.31615 -0.385623 -2.19248 -6.46944 -1.22533e-07 -171.094 -6.26237 -3.28271 39.0811 -6.73843e-06 -1.23785e-05 0.0618619 -0.0586453 41.5439 40.9854 -6.48686e-06 -1.26872e-05 -3.29638 0.312806 -65.1938 11.7543 -2.30145e-07 3.05095e-06 1.5314 0.16972 -30.7388 -2.19251 6.46944 -1.45247e-06 -167.439 7.44237 165.151 -39.0811 -0.00228153 -0.0401928 0.0789548 -0.17875 18.8444 -40.9854 7.72618e-06 5.99936e-06 7.53206 -1.23634 -49.7053 -11.7543 -5.6619e-06 -5.58687e-06 0.296954 -0.320569 -19.0064 
0 0 0 0 0 -0 -4.5794 90.1892 376.231 83.097 -2.0553 4.39632 15.7357 5.1072e-06 -5.51764e-07 88.9935 83.5358 -85.1368 8.98455 -0.406207 -4.3199e-07 5.18266 -0.313138 7.71898 16.3773 -1.3905e-06 -6.99897e-07 5.22306 0.406753 -1.20545 6.45672 -1.25837e-06 -1.02172e-07 14.6157 -0.719835 -7.01314 12.9942 -0.242716 4.98039 -90.243 1.83662 -97.4629 5.34809 -7.22636e-06 -6.2814e-07 -73.9873 14.9526 -11.6436 24.3286 1.87007e-05 4.90208e-06 4.0081 10.0806 -21.8169 22.2916 -9.88446e-07 4.63217e-06 7.94745 5.12089 4.63102 12.9945 -0.242716 -4.98039 89.2603 4.6536 -95.9585 -5.34813 -1.25947e-06 -3.79883e-06 -67.1677 4.52436 8.14667 -24.3289 0.000322201 -8.65921e-06 3.71965 14.7727 -14.307 -22.2915 -0.000108084 -4.47941e-06 11.9546 5.32831 -0.736264 -2.19248 -6.46944 -1.22533e-07 -171.359 -7.2877 -0.51922 39.0811 -6.73843e-06 -1.23785e-05 0.225311 -0.311651 34.6788 40.9854 -6.48686e-06 -1.26872e-05 -0.110138 0.561848 -73.7511 11.7543 -2.30145e-07 3.05095e-06 0.3048 -0.493652 -22.8684 -2.19251 6.46944 -1.45247e-06 -167.25 6.35611 163.491 -39.0811 -0.00228153 -0.0401928 0.043834 -0.0905177 17.3169 -40.9854 7.72618e-06 5.99936e-06 7.23 -1.96141 -47.2496 -11.7543 -5.6619e-06 -5.58687e-06 0.302948 -0.327345 -19.0568 
0 0 0 0 0 -0 -3.72377 90.001 373.995 83.6692 -2.2037 3.92991 15.7357 5.1072e-06 -5.51765e-07 87.4611 83.5262 -83.9153 8.98455 -0.406207 -4.3199e-07 5.19915 -0.651402 7.11324 16.3773 -1.3905e-06 -6.99897e-07 4.97015 0.22087 -0.862278 6.45672 -1.25837e-06 -1.02172e-07 14.3732 -0.667318 -6.46566 12.9942 -0.242716 4.98039 -90.2515 1.90837 -97.4907 5.34809 -7.22636e-06 -6.2814e-07 -73.5136 14.8628 -13.2845 24.3286 1.87007e-05 4.90208e-06 4.23029 9.94007 -23.1942 22.2916 -9.88446e-07 4.63217e-06 8.35996 5.1246 4.54423 12.9945 -0.242716 -4.98039 89.1496 5.19035 -95.682 -5.34813 -1.25947e-06 -3.79883e-06 -66.4365 4.31473 8.15482 -24.3289 0.000322201 -8.65921e-06 4.3195 14.9 -16.3734 -22.2915 -0.000108084 -4.47941e-06 12.077 5.34067 -1.09865 -2.19248 -6.46944 -1.22533e-07 -172.791 -7.11149 -0.514395 39.0811 -6.73843e-06 -1.23785e-05 0.100191 -0.125362 32.0112 40.9854 -6.48686e-06 -1.26872e-05 0.398871 -0.10116 -77.6774 11.7543 -2.30145e-07 3.05095e-06 0.0139916 -0.0155623 -16.73 -2.19251 6.46944 -1.45247e-06 -168.326 5.3132 162.401 -39.0811 -0.00228153 -0.0401928 0.01536 -0.00862727 15.3894 -40.9854 7.72618e-06 5.99936e-06 6.77433 -2.30763 -44.5306 -11.7543 -5.6619e-06 -5.58687e-06 0.300537 -0.324609 -19.0364 
0 0 0 0 0 -0 -2.47972 90.1315 371.889 86.1236 -2.64546 5.04982 15.7357 5.1072e-06 -5.51765e-07 85.9708 82.9025 -83.4203 8.98455 -0.406207 -4.3199e-07 6.42263 -1.02422 5.15283 16.3773 -1.3905e-06 -6.99897e-07 4.79111 0.123877 -0.681388 6.45672 -1.25837e-06 -1.02172e-07 14.1036 -0.549559 -5.88931 12.9942 -0.242716 4.98039 -90.327 2.50465 -97.5592 5.34809 -7.22636e-06 -6.2814e-07 -72.4516 14.35 -14.4939 24.3286 1.87007e-05 4.90208e-06 4.58907 9.95498 -24.9062 22.2916 -9.88446e-07 4.63217e-06 8.66227 5.12732 4.48056 12.9945 -0.242716 -4.98039 89.0097 5.97851 -95.5781 -5.34813 -1.25947e-06 -3.79883e-06 -65.7332 3.74583 7.49005 -24.3289 0.000322201 -8.65921e-06 4.86318 15.0165 -18.183 -22.2915 -0.000108084 -4.47941e-06 12.6562 5.35341 -1.47782 -2.19248 -6.46944 -1.22533e-07 -177.244 -4.0991 -0.875808 39.0811 -6.73843e-06 -1.23785e-05 0.0848137 -0.0855011 31.686 40.9854 -6.48686e-06 -1.26872e-05 0.514223 -4.13602 -76.0927 11.7543 -2.30145e-07 3.05095e-06 0.0490346 -0.0548757 -17.1138 -2.19251 6.46944 -1.45247e-06 -171.713 4.07536 163.207 -39.0811 -0.00228153 -0.0401928 -0.0295583 0.169004 13.3486 -40.9854 7.72618e-06 5.99936e-06 6.03566 -3.16111 -43.1045 -11.7543 -5.6619e-06 -5.58687e-06 0.330308 -0.358338 -19.2868 
